<svg xmlns="http://www.w3.org/2000/svg" width="580" height="320" viewBox="0 0 580 320" role="img" aria-label="Séparer les mélanges"><defs><linearGradient id="bg" x1="0" x2="1" y1="0" y2="1"><stop stop-color="#e9faf4"/><stop offset="1" stop-color="#ffffff" /></linearGradient></defs><rect x="0" y="0" width="580" height="320" rx="29" fill="url(#bg)" stroke="none" stroke-width="1" /><circle cx="554" cy="24" r="104" fill="#ffffff55" stroke="none" stroke-width="2" /><circle cx="28" cy="312" r="70" fill="#ffffff66" stroke="none" stroke-width="2" /><text x="288" y="38" fill="#138b77" font-family="Arial, sans-serif" font-size="15" font-weight="700" text-anchor="middle">PHYSIQUE-CHIMIE · 5e</text><path d="M90,76 l0,91 q0,17 16,17 h91 q16,0 16,-17 v-91" fill="#ecf9ff" stroke="#138b77" stroke-width="5" stroke-linejoin="round" /><rect x="96" y="124" width="107" height="52" rx="7" fill="#68bfe5" stroke="none" stroke-width="1" /><circle cx="114" cy="142" r="3" fill="#dcf6ff" stroke="none" stroke-width="2" /><circle cx="149" cy="154" r="3" fill="#dcf6ff" stroke="none" stroke-width="2" /><line x1="219" y1="154" x2="285" y2="154" stroke="#6bcdb7" stroke-width="5" stroke-linecap="round" /><path d="M275,147 L285,154 L275,161" fill="none" stroke="#6bcdb7" stroke-width="4" stroke-linecap="round" stroke-linejoin="round" /><path d="M305,92 L465,92 L400,184 L369,184 Z" fill="#fff" stroke="#138b77" stroke-width="5" /><rect x="366" y="165" width="39" height="28" rx="5" fill="#d9a371" stroke="none" stroke-width="1" /><rect x="338" y="205" width="120" height="22" rx="7" fill="#68bfe5" stroke="none" stroke-width="1" /><circle cx="356" cy="223" r="3" fill="#dcf6ff" stroke="none" stroke-width="2" /><circle cx="391" cy="235" r="3" fill="#dcf6ff" stroke="none" stroke-width="2" /><text x="386" y="246" fill="#138b77" font-family="Arial, sans-serif" font-size="16" font-weight="600" text-anchor="middle">FILTRATION</text><rect x="24" y="277" width="532" height="29" rx="12" fill="#ffffffc9" stroke="none" stroke-width="1" /><text x="289" y="298" fill="#138b77" font-family="Arial, sans-serif" font-size="17" font-weight="700" text-anchor="middle">Séparer les mélanges</text></svg>