<svg xmlns="http://www.w3.org/2000/svg" width="580" height="320" viewBox="0 0 580 320" role="img" aria-label="Transformations physiques et chimiques"><defs><linearGradient id="bg" x1="0" x2="1" y1="0" y2="1"><stop stop-color="#e8f5ff"/><stop offset="1" stop-color="#ffffff" /></linearGradient></defs><rect x="0" y="0" width="580" height="320" rx="29" fill="url(#bg)" stroke="none" stroke-width="1" /><circle cx="554" cy="24" r="104" fill="#ffffff55" stroke="none" stroke-width="2" /><circle cx="28" cy="312" r="70" fill="#ffffff66" stroke="none" stroke-width="2" /><text x="288" y="38" fill="#2d68bd" font-family="Arial, sans-serif" font-size="15" font-weight="700" text-anchor="middle">PHYSIQUE-CHIMIE · 5e</text><path d="M85,81 l0,91 q0,17 16,17 h91 q16,0 16,-17 v-91" fill="#ecf9ff" stroke="#2d68bd" stroke-width="5" stroke-linejoin="round" /><rect x="91" y="129" width="107" height="52" rx="7" fill="#68bfe5" stroke="none" stroke-width="1" /><circle cx="109" cy="147" r="3" fill="#dcf6ff" stroke="none" stroke-width="2" /><circle cx="144" cy="159" r="3" fill="#dcf6ff" stroke="none" stroke-width="2" /><line x1="231" y1="142" x2="334" y2="142" stroke="#4da9e9" stroke-width="5" stroke-linecap="round" /><path d="M324,135 L334,142 L324,149" fill="none" stroke="#4da9e9" stroke-width="4" stroke-linecap="round" stroke-linejoin="round" /><path d="M363,81 l0,91 q0,17 16,17 h91 q16,0 16,-17 v-91" fill="#ecf9ff" stroke="#2d68bd" stroke-width="5" stroke-linejoin="round" /><rect x="369" y="129" width="107" height="52" rx="7" fill="#68bfe5" stroke="none" stroke-width="1" /><circle cx="387" cy="147" r="3" fill="#dcf6ff" stroke="none" stroke-width="2" /><circle cx="422" cy="159" r="3" fill="#dcf6ff" stroke="none" stroke-width="2" /><circle cx="402" cy="161" r="7" fill="#f6bc6b" stroke="none" stroke-width="2" /><circle cx="435" cy="149" r="5" fill="#f6bc6b" stroke="none" stroke-width="2" /><text x="283" y="106" fill="#2d68bd" font-family="Arial, sans-serif" font-size="15" font-weight="600" text-anchor="middle">RÉACTION</text><rect x="24" y="277" width="532" height="29" rx="12" fill="#ffffffc9" stroke="none" stroke-width="1" /><text x="289" y="298" fill="#2d68bd" font-family="Arial, sans-serif" font-size="17" font-weight="700" text-anchor="middle">Transformations physiques et chimiques</text></svg>