<svg xmlns="http://www.w3.org/2000/svg" width="580" height="320" viewBox="0 0 580 320" role="img" aria-label="Fusion, solidification et évaporation"><defs><linearGradient id="bg" x1="0" x2="1" y1="0" y2="1"><stop stop-color="#e9faf4"/><stop offset="1" stop-color="#ffffff" /></linearGradient></defs><rect x="0" y="0" width="580" height="320" rx="29" fill="url(#bg)" stroke="none" stroke-width="1" /><circle cx="554" cy="24" r="104" fill="#ffffff55" stroke="none" stroke-width="2" /><circle cx="28" cy="312" r="70" fill="#ffffff66" stroke="none" stroke-width="2" /><text x="288" y="38" fill="#138b77" font-family="Arial, sans-serif" font-size="15" font-weight="700" text-anchor="middle">SCIENCES &amp; TECHNOLOGIE · 6e</text><rect x="66" y="104" width="140" height="102" rx="14" fill="#d5f0ff" stroke="none" stroke-width="1" /><rect x="370" y="104" width="140" height="102" rx="14" fill="#a4e8e5" stroke="none" stroke-width="1" /><text x="136" y="161" fill="#138b77" font-family="Arial, sans-serif" font-size="22" font-weight="600" text-anchor="middle">SOLIDE</text><text x="440" y="161" fill="#138b77" font-family="Arial, sans-serif" font-size="22" font-weight="600" text-anchor="middle">LIQUIDE</text><line x1="220" y1="140" x2="353" y2="140" stroke="#6bcdb7" stroke-width="5" stroke-linecap="round" /><path d="M343,133 L353,140 L343,147" fill="none" stroke="#6bcdb7" stroke-width="4" stroke-linecap="round" stroke-linejoin="round" /><line x1="352" y1="182" x2="220" y2="182" stroke="#138b77" stroke-width="5" stroke-linecap="round" /><path d="M210,175 L220,182 L210,189" fill="none" stroke="#138b77" stroke-width="4" stroke-linecap="round" stroke-linejoin="round" /><text x="285" y="119" fill="#138b77" font-family="Arial, sans-serif" font-size="12" font-weight="600" text-anchor="middle">CHAUFFER</text><text x="285" y="208" fill="#138b77" font-family="Arial, sans-serif" font-size="12" font-weight="600" text-anchor="middle">REFROIDIR</text><rect x="24" y="277" width="532" height="29" rx="12" fill="#ffffffc9" stroke="none" stroke-width="1" /><text x="289" y="298" fill="#138b77" font-family="Arial, sans-serif" font-size="17" font-weight="700" text-anchor="middle">Fusion, solidification et évaporation</text></svg>